<svg xmlns="http://www.w3.org/2000/svg" viewBox="0 0 800 800" width="800" height="800" xmlns:c2pa="http://c2pa.org/manifest"><metadata><c2pa:manifest>AAAWgmp1bWIAAAAeanVtZGMycGEAEQAQgAAAqgA4m3EDYzJwYQAAABZcanVtYgAAAEdqdW1kYzJtYQARABCAAACqADibcQN1cm46YzJwYTo2NjJjMmY4ZS02Mjg5LTQ3YmUtYjFkNS0wZmQwZGI2NDJjMDMAAAADl2p1bWIAAAApanVtZGMyYXMAEQAQgAAAqgA4m3EDYzJwYS5hc3NlcnRpb25zAAAAALxqdW1iAAAARGp1bWRjYm9yABEAEIAAAKoAOJtxE2MycGEuaW5ncmVkaWVudC52MwAAAAAYYzJzaM9BQ+X5bZgIgY77/qMPECgAAABwY2JvcqNpZGM6Zm9ybWF0bWltYWdlL3N2Zyt4bWxqaW5zdGFuY2VJRHgseG1wOmlpZDo4MTRmMDNjYy0yYmNmLTQ2MTctOWNhNC05ZjZjY2Q0YTMxY2FscmVsYXRpb25zaGlwaHBhcmVudE9mAAAB4mp1bWIAAABBanVtZGNib3IAEQAQgAAAqgA4m3ETYzJwYS5hY3Rpb25zLnYyAAAAABhjMnNopYiK6wTM0XAv3tvGwgEMnQAAAZljYm9yomdhY3Rpb25zgqJmYWN0aW9ua2MycGEub3BlbmVkanBhcmFtZXRlcnOha2luZ3JlZGllbnRzgaJjdXJseC1zZWxmI2p1bWJmPWMycGEuYXNzZXJ0aW9ucy9jMnBhLmluZ3JlZGllbnQudjNkaGFzaFggY9lsD995QsWQyRiWMN4mZjd9d40Gi92GTW8bZQERXKqkZmFjdGlvbngdY29tLmFudGhyb3BpYy5jbGF1ZGUucHJvdmlkZWRqcGFyYW1ldGVyc6F4H2NvbS5hbnRocm9waWMub3JpZ2luLWNvbmZpZGVuY2VndW5rbm93bmtkZXNjcmlwdGlvbnhmQ2xhdWRlIHByb3ZpZGVkIHRoaXMgZmlsZSBhdCB0aGUgcmVxdWVzdCBvZiBhIHVzZXIgYW5kIG1heSBoYXZlIGNyZWF0ZWQgb3IgbW9kaWZpZWQgdGhlIGZpbGUgY29udGVudHMubXNvZnR3YXJlQWdlbnShZG5hbWVmQ2xhdWRlcmFsbEFjdGlvbnNJbmNsdWRlZPUAAADIanVtYgAAAEBqdW1kY2JvcgARABCAAACqADibcRNjMnBhLmhhc2guZGF0YQAAAAAYYzJzaDUJpXt0In7IZ1c9WHZ4m4cAAACAY2JvcqVjYWxnZnNoYTI1NmNwYWRNAAAAAAAAAAAAAAAAAGRoYXNoWCD/lyBbN5NhxSCAh0dpYUJD9WSKqy1oQMhueVyO/1rMC2RuYW1lbmp1bWJmIG1hbmlmZXN0amV4Y2x1c2lvbnOBomVzdGFydBiWZmxlbmd0aBkeBAAAAj5qdW1iAAAAJ2p1bWRjMmNsABEAEIAAAKoAOJtxA2MycGEuY2xhaW0udjIAAAACD2Nib3KlY2FsZ2ZzaGEyNTZpc2lnbmF0dXJleE1zZWxmI2p1bWJmPS9jMnBhL3VybjpjMnBhOjY2MmMyZjhlLTYyODktNDdiZS1iMWQ1LTBmZDBkYjY0MmMwMy9jMnBhLnNpZ25hdHVyZWppbnN0YW5jZUlEeCx4bXA6aWlkOmJlNjgzMzAxLTdhMWYtNDRjMC05MWM5LTFjOGYwMDcyNWUxOXJjcmVhdGVkX2Fzc2VydGlvbnODomN1cmx4LXNlbGYjanVtYmY9YzJwYS5hc3NlcnRpb25zL2MycGEuaW5ncmVkaWVudC52M2RoYXNoWCBj2WwP33lCxZDJGJYw3iZmN313jQaL3YZNbxtlARFcqqJjdXJseCpzZWxmI2p1bWJmPWMycGEuYXNzZXJ0aW9ucy9jMnBhLmFjdGlvbnMudjJkaGFzaFgg8BsX0sgPAmPabHT0qYEKyR/nPwObSaNqVEQXCESztVaiY3VybHgpc2VsZiNqdW1iZj1jMnBhLmFzc2VydGlvbnMvYzJwYS5oYXNoLmRhdGFkaGFzaFggu/T/NArPi/4QDSWpA3+SyfMXQjac1vEBbJL06YkyweR0Y2xhaW1fZ2VuZXJhdG9yX2luZm+jZG5hbWVvQW50aHJvcGljIEZpbGVzZ3ZlcnNpb25lMS4wLjBrc3BlY1ZlcnNpb25lMi40LjAAABA4anVtYgAAAChqdW1kYzJjcwARABCAAACqADibcQNjMnBhLnNpZ25hdHVyZQAAABAIY2JvctKEWQISogEmGCFZAgowggIGMIIBjaADAgECAhRA5aAK7sI50L64g/oGQgU9Z1UTADAKBggqhkjOPQQDAzBJMRcwFQYDVQQKEw5BbnRocm9waWMsIFBCQzEuMCwGA1UEAxMlQW50aHJvcGljIENvbnRlbnQgQ3JlZGVudGlhbHMgUm9vdCBDQTAeFw0yNjA4MDcxODQzNTZaFw0yODA4MDYxOTQzNTZaMEQxFzAVBgNVBAoTDkFudGhyb3BpYywgUEJDMSkwJwYDVQQDEyBBbnRocm9waWMgQ2xhdWRlIENvbnRlbnQgU2lnbmluZzBZMBMGByqGSM49AgEGCCqGSM49AwEHA0IABJh6CmvLUBgFFNU0vUKlOVtE6djd17L5SuwX0LemFisBM3dkd/3cyjxFA3Qo5S46fX0/ihY0VZ7mfb9KF703t5OjWDBWMA4GA1UdDwEB/wQEAwIHgDAVBgNVHSUEDjAMBgorBgEEAYPoXgIBMAwGA1UdEwEB/wQCMAAwHwYDVR0jBBgwFoAUzlHiBIFOZFsj+OPEz5o+nMHXXMIwCgYIKoZIzj0EAwMDZwAwZAIwMXMdFJ4BetLLVY7ORuE9noqbbAZOZn/aArXyTwFAZfKrPzxF2vPoJNf1+UCdg1XGAjBwX1zd9WGqYkqmL5SFqw1QySjr1zJfpJM9+1rdDwSPLMOPOjKuiXjoU/pUUeG9RwmhY3BhZFkNngAAAAAAAAAAAAAAAAAAAAAAAAAAAAAAAAAAAAAAAAAAAAAAAAAAAAAAAAAAAAAAAAAAAAAAAAAAAAAAAAAAAAAAAAAAAAAAAAAAAAAAAAAAAAAAAAAAAAAAAAAAAAAAAAAAAAAAAAAAAAAAAAAAAAAAAAAAAAAAAAAAAAAAAAAAAAAAAAAAAAAAAAAAAAAAAAAAAAAAAAAAAAAAAAAAAAAAAAAAAAAAAAAAAAAAAAAAAAAAAAAAAAAAAAAAAAAAAAAAAAAAAAAAAAAAAAAAAAAAAAAAAAAAAAAAAAAAAAAAAAAAAAAAAAAAAAAAAAAAAAAAAAAAAAAAAAAAAAAAAAAAAAAAAAAAAAAAAAAAAAAAAAAAAAAAAAAAAAAAAAAAAAAAAAAAAAAAAAAAAAAAAAAAAAAAAAAAAAAAAAAAAAAAAAAAAAAAAAAAAAAAAAAAAAAAAAAAAAAAAAAAAAAAAAAAAAAAAAAAAAAAAAAAAAAAAAAAAAAAAAAAAAAAAAAAAAAAAAAAAAAAAAAAAAAAAAAAAAAAAAAAAAAAAAAAAAAAAAAAAAAAAAAAAAAAAAAAAAAAAAAAAAAAAAAAAAAAAAAAAAAAAAAAAAAAAAAAAAAAAAAAAAAAAAAAAAAAAAAAAAAAAAAAAAAAAAAAAAAAAAAAAAAAAAAAAAAAAAAAAAAAAAAAAAAAAAAAAAAAAAAAAAAAAAAAAAAAAAAAAAAAAAAAAAAAAAAAAAAAAAAAAAAAAAAAAAAAAAAAAAAAAAAAAAAAAAAAAAAAAAAAAAAAAAAAAAAAAAAAAAAAAAAAAAAAAAAAAAAAAAAAAAAAAAAAAAAAAAAAAAAAAAAAAAAAAAAAAAAAAAAAAAAAAAAAAAAAAAAAAAAAAAAAAAAAAAAAAAAAAAAAAAAAAAAAAAAAAAAAAAAAAAAAAAAAAAAAAAAAAAAAAAAAAAAAAAAAAAAAAAAAAAAAAAAAAAAAAAAAAAAAAAAAAAAAAAAAAAAAAAAAAAAAAAAAAAAAAAAAAAAAAAAAAAAAAAAAAAAAAAAAAAAAAAAAAAAAAAAAAAAAAAAAAAAAAAAAAAAAAAAAAAAAAAAAAAAAAAAAAAAAAAAAAAAAAAAAAAAAAAAAAAAAAAAAAAAAAAAAAAAAAAAAAAAAAAAAAAAAAAAAAAAAAAAAAAAAAAAAAAAAAAAAAAAAAAAAAAAAAAAAAAAAAAAAAAAAAAAAAAAAAAAAAAAAAAAAAAAAAAAAAAAAAAAAAAAAAAAAAAAAAAAAAAAAAAAAAAAAAAAAAAAAAAAAAAAAAAAAAAAAAAAAAAAAAAAAAAAAAAAAAAAAAAAAAAAAAAAAAAAAAAAAAAAAAAAAAAAAAAAAAAAAAAAAAAAAAAAAAAAAAAAAAAAAAAAAAAAAAAAAAAAAAAAAAAAAAAAAAAAAAAAAAAAAAAAAAAAAAAAAAAAAAAAAAAAAAAAAAAAAAAAAAAAAAAAAAAAAAAAAAAAAAAAAAAAAAAAAAAAAAAAAAAAAAAAAAAAAAAAAAAAAAAAAAAAAAAAAAAAAAAAAAAAAAAAAAAAAAAAAAAAAAAAAAAAAAAAAAAAAAAAAAAAAAAAAAAAAAAAAAAAAAAAAAAAAAAAAAAAAAAAAAAAAAAAAAAAAAAAAAAAAAAAAAAAAAAAAAAAAAAAAAAAAAAAAAAAAAAAAAAAAAAAAAAAAAAAAAAAAAAAAAAAAAAAAAAAAAAAAAAAAAAAAAAAAAAAAAAAAAAAAAAAAAAAAAAAAAAAAAAAAAAAAAAAAAAAAAAAAAAAAAAAAAAAAAAAAAAAAAAAAAAAAAAAAAAAAAAAAAAAAAAAAAAAAAAAAAAAAAAAAAAAAAAAAAAAAAAAAAAAAAAAAAAAAAAAAAAAAAAAAAAAAAAAAAAAAAAAAAAAAAAAAAAAAAAAAAAAAAAAAAAAAAAAAAAAAAAAAAAAAAAAAAAAAAAAAAAAAAAAAAAAAAAAAAAAAAAAAAAAAAAAAAAAAAAAAAAAAAAAAAAAAAAAAAAAAAAAAAAAAAAAAAAAAAAAAAAAAAAAAAAAAAAAAAAAAAAAAAAAAAAAAAAAAAAAAAAAAAAAAAAAAAAAAAAAAAAAAAAAAAAAAAAAAAAAAAAAAAAAAAAAAAAAAAAAAAAAAAAAAAAAAAAAAAAAAAAAAAAAAAAAAAAAAAAAAAAAAAAAAAAAAAAAAAAAAAAAAAAAAAAAAAAAAAAAAAAAAAAAAAAAAAAAAAAAAAAAAAAAAAAAAAAAAAAAAAAAAAAAAAAAAAAAAAAAAAAAAAAAAAAAAAAAAAAAAAAAAAAAAAAAAAAAAAAAAAAAAAAAAAAAAAAAAAAAAAAAAAAAAAAAAAAAAAAAAAAAAAAAAAAAAAAAAAAAAAAAAAAAAAAAAAAAAAAAAAAAAAAAAAAAAAAAAAAAAAAAAAAAAAAAAAAAAAAAAAAAAAAAAAAAAAAAAAAAAAAAAAAAAAAAAAAAAAAAAAAAAAAAAAAAAAAAAAAAAAAAAAAAAAAAAAAAAAAAAAAAAAAAAAAAAAAAAAAAAAAAAAAAAAAAAAAAAAAAAAAAAAAAAAAAAAAAAAAAAAAAAAAAAAAAAAAAAAAAAAAAAAAAAAAAAAAAAAAAAAAAAAAAAAAAAAAAAAAAAAAAAAAAAAAAAAAAAAAAAAAAAAAAAAAAAAAAAAAAAAAAAAAAAAAAAAAAAAAAAAAAAAAAAAAAAAAAAAAAAAAAAAAAAAAAAAAAAAAAAAAAAAAAAAAAAAAAAAAAAAAAAAAAAAAAAAAAAAAAAAAAAAAAAAAAAAAAAAAAAAAAAAAAAAAAAAAAAAAAAAAAAAAAAAAAAAAAAAAAAAAAAAAAAAAAAAAAAAAAAAAAAAAAAAAAAAAAAAAAAAAAAAAAAAAAAAAAAAAAAAAAAAAAAAAAAAAAAAAAAAAAAAAAAAAAAAAAAAAAAAAAAAAAAAAAAAAAAAAAAAAAAAAAAAAAAAAAAAAAAAAAAAAAAAAAAAAAAAAAAAAAAAAAAAAAAAAAAAAAAAAAAAAAAAAAAAAAAAAAAAAAAAAAAAAAAAAAAAAAAAAAAAAAAAAAAAAAAAAAAAAAAAAAAAAAAAAAAAAAAAAAAAAAAAAAAAAAAAAAAAAAAAAAAAAAAAAAAAAAAAAAAAAAAAAAAAAAAAAAAAAAAAAAAAAAAAAAAAAAAAAAAAAAAAAAAAAAAAAAAAAAAAAAAAAAAAAAAAAAAAAAAAAAAAAAAAAAAAAAAAAAAAAAAAAAAAAAAAAAAAAAAAAAAAAAAAAAAAAAAAAAAAAAAAAAAAAAAAAAAAAAAAAAAAAAAAAAAAAAAAAAAAAAAAAAAAAAAAAAAAAAAAAAAAAAAAAAAAAAAAAAAAAAAAAAAAAAAAAAAAAAAAAAAAAAAAAAAAAAAAAAAAAAAAAAAAAAAAAAAAAAAAAAAAAAAAAAAAAAAAAAAAAAAAAAAAAAAAAAAAAAAAAAAAAAAAAAAAAAAAAAAAAAAAAAAAAAAAAAAAAAAAAAAAAAAAAAAAAAAAAAAAAAAAAAAAAAAAAAAAAAAAAAAAAAAAAAAAAAAAAAAAAAAAAAAAAAAAAAAAAAAAAAAAAAAAAAAAAAAAAAAAAAAAAAAAAAAAAAAAAAAAAAAAAAAAAAAAAAAAAAAAAAAAAAAAAAAAAAAAAAAAAAAAAAAAAAAAAAAAAAAAAAAAAAAAAAAAAAAAAAAAAAAAAAAAAAAAAAAAAAAAAAAAAAAAAAAAAAAAAAAAAAAAAAAAAAAAAAAAAAAAAAAAAAAAAAAAAAAAAAAAAAAAAAAAAAAAAAAAAAAAAAAAAAAAAAAAAAAAAAAAAAAAAAAAAAAAAAAAAAAAAAAAAAAAAAAAAAAAAAAAAAAAAAAAAAAAAAAAAAAAAAAAAAAAAAAAAAAAAAAAAAAAAAAAAAAAAAAAAAAAAAAAAAAAAAAAAAAAAAAAAAAAAAAAAAAAAAAAAAAAAAAAAAAAAAAAAAAAAAAAAAAAAAAAAAAAAAAAAAAAAAAAAAAAAAAAAAAAAAAAAAAAAAAAAAAAAAAAAAAAAAAAAAAAAAAAAAAAAAAAAAAAAAAAAAAAAAAAAAAAAAAAAAAAAAAAAAAAAAAAAAAAAAAAAAAAAAAAAAAAAAAAAAAAAAAAAAAAAAAAAAAAAAAAAAAAAAAAAAAAAAAAAAAAAAAAAAAAAAAAAAAAAAAAAAAAAAAAAAAAAAAAAAAAAAAAAAAAAAAAAAAAAAAAAAAAAAAAAAAAAAAAAAAAAAAAAAAAAAAAAAAAAAAAAAAAAAAAAAAAAAAAAAAAAAAAAAAAAAAAAAAAAAAAAAAAAAAAAAAAAAAAAAAAAAAAAAAAAAAAAAAAAAAAAAAAAAAAAAAAAAAAAAAAAAAAAAAAAAAAAAAAAAAAAAAAAAAAAAAAAAAAAAAAAAAAAAAAAAAAAAAAAAAAAAAAAAAAAAAAAAAAAAAAAAAAAAAAAAAAAAAAAAAAAAAAAAAAAAAAAAAAAAAAAAAAAAAAAAAAAAAAAAAAAAAAAAAAAAAAAAAAAAAAAAAAAAAAAAAAAAAAAAAAAAAAAAAAAAAAAAAAAAAAAAAAAAAAAAAAAAAAAAAAAAAAAAAAAAAAAAAAAAAAAAAAAAAAAAAAAAAAAAAAAAAAAAAAAAAAAAAAPZYQFjGXKbQ0uG19z5JDsoGSrHonRxV3e9XSh5sgK6lkM/zossdf11nawCze9vdD18eppjph+6HGgeUSpZzrnn+0vI=</c2pa:manifest></metadata><defs><linearGradient id="sky" x1="0" y1="0" x2="0" y2="1"><stop offset="0" stop-color="#B2EBF2"/><stop offset="1" stop-color="#E8F5E9"/></linearGradient></defs><rect width="800" height="800" fill="url(#sky)"/><path d="M0 560 Q200 500 400 540 T800 520 L800 800 L0 800Z" fill="#81C784"/><path d="M0 660 Q400 600 800 660 L800 800 L0 800Z" fill="#66BB6A"/><circle cx="60" cy="700" r="9" fill="#EC407A"/><circle cx="60" cy="700" r="3.5" fill="#FFF59D"/><circle cx="120" cy="740" r="9" fill="#FFEB3B"/><circle cx="120" cy="740" r="3.5" fill="#FFF59D"/><circle cx="700" cy="720" r="9" fill="#AB47BC"/><circle cx="700" cy="720" r="3.5" fill="#FFF59D"/><circle cx="760" cy="690" r="9" fill="#FF7043"/><circle cx="760" cy="690" r="3.5" fill="#FFF59D"/><circle cx="340" cy="760" r="9" fill="#FFEB3B"/><circle cx="340" cy="760" r="3.5" fill="#FFF59D"/><circle cx="480" cy="770" r="9" fill="#EC407A"/><circle cx="480" cy="770" r="3.5" fill="#FFF59D"/><path d="M360 700 Q370 520 340 430 L460 430 Q430 520 440 700Z" fill="#6D4C41"/><circle cx="400" cy="230" r="170" fill="#2E7D32"/><circle cx="250" cy="320" r="120" fill="#2E7D32"/><circle cx="550" cy="320" r="120" fill="#2E7D32"/><circle cx="320" cy="180" r="110" fill="#2E7D32"/><circle cx="480" cy="180" r="110" fill="#2E7D32"/><circle cx="400" cy="380" r="120" fill="#2E7D32"/><circle cx="360" cy="170" r="60" fill="#43A047"/><circle cx="470" cy="260" r="50" fill="#43A047"/><circle cx="280" cy="280" r="16" fill="#E53935"/><path d="M280 265 l4 -8" stroke="#5D4037" stroke-width="3"/><circle cx="360" cy="330" r="16" fill="#E53935"/><path d="M360 315 l4 -8" stroke="#5D4037" stroke-width="3"/><circle cx="450" cy="300" r="16" fill="#E53935"/><path d="M450 285 l4 -8" stroke="#5D4037" stroke-width="3"/><circle cx="520" cy="360" r="16" fill="#E53935"/><path d="M520 345 l4 -8" stroke="#5D4037" stroke-width="3"/><circle cx="330" cy="200" r="16" fill="#E53935"/><path d="M330 185 l4 -8" stroke="#5D4037" stroke-width="3"/><circle cx="470" cy="170" r="16" fill="#E53935"/><path d="M470 155 l4 -8" stroke="#5D4037" stroke-width="3"/><circle cx="400" cy="250" r="16" fill="#E53935"/><path d="M400 235 l4 -8" stroke="#5D4037" stroke-width="3"/><circle cx="560" cy="260" r="16" fill="#E53935"/><path d="M560 245 l4 -8" stroke="#5D4037" stroke-width="3"/><circle cx="240" cy="360" r="16" fill="#E53935"/><path d="M240 345 l4 -8" stroke="#5D4037" stroke-width="3"/><path d="M330 640 Q460 600 350 560 Q250 520 420 480 Q520 450 440 420" stroke="#7CB342" stroke-width="24" fill="none" stroke-linecap="round"/><ellipse cx="445" cy="410" rx="26" ry="18" fill="#7CB342"/><circle cx="452" cy="404" r="4" fill="#212121"/><path d="M468 414 L488 410 M488 410 l6 -5 M488 410 l6 5" stroke="#E53935" stroke-width="3" fill="none"/><ellipse cx="146" cy="740" rx="18" ry="8" fill="#5D4037"/><ellipse cx="194" cy="740" rx="18" ry="8" fill="#5D4037"/><path d="M125 530 Q170 518 215 530 L239 737 Q170 746 101 737Z" fill="#558B2F"/><line x1="132" y1="542" x2="113" y2="648" stroke="#558B2F" stroke-width="22" stroke-linecap="round"/><circle cx="113" cy="648" r="9" fill="#E8B98F"/><line x1="208" y1="542" x2="291" y2="611" stroke="#558B2F" stroke-width="22" stroke-linecap="round"/><circle cx="291" cy="611" r="9" fill="#E8B98F"/><rect x="160" y="519" width="21" height="18" fill="#E8B98F"/><circle cx="170" cy="500" r="32" fill="#E8B98F"/><path d="M138 500 Q138 461 170 465 Q202 461 202 500 Q186 481 170 483 Q154 481 138 500Z" fill="#5D4037"/><circle cx="159" cy="498" r="3.8" fill="#2B1B12"/><circle cx="181" cy="498" r="3.8" fill="#2B1B12"/><path d="M159 512 Q170 521 181 512" stroke="#8D4E36" stroke-width="3.2" fill="none" stroke-linecap="round"/><circle cx="151" cy="510" r="4.4" fill="#F48FB1" opacity=".5"/><circle cx="189" cy="510" r="4.4" fill="#F48FB1" opacity=".5"/><path d="M597 499 Q584 593 618 606 L642 606 Q676 593 663 499Z" fill="#8D4E36"/><ellipse cx="607" cy="740" rx="17" ry="7" fill="#5D4037"/><ellipse cx="653" cy="740" rx="17" ry="7" fill="#5D4037"/><path d="M586 537 Q630 525 674 537 L697 737 Q630 746 563 737Z" fill="#689F38"/><line x1="593" y1="549" x2="513" y2="616" stroke="#689F38" stroke-width="22" stroke-linecap="round"/><circle cx="513" cy="616" r="9" fill="#E8B98F"/><line x1="667" y1="549" x2="703" y2="647" stroke="#689F38" stroke-width="22" stroke-linecap="round"/><circle cx="703" cy="647" r="9" fill="#E8B98F"/><rect x="620" y="526" width="20" height="17" fill="#E8B98F"/><circle cx="630" cy="508" r="30" fill="#E8B98F"/><path d="M599 508 Q600 470 630 475 Q660 470 661 508 Q645 490 630 491 Q615 490 599 508Z" fill="#8D4E36"/><circle cx="619" cy="507" r="3.7" fill="#2B1B12"/><circle cx="641" cy="507" r="3.7" fill="#2B1B12"/><path d="M619 520 Q630 529 641 520" stroke="#8D4E36" stroke-width="3.0" fill="none" stroke-linecap="round"/><circle cx="612" cy="517" r="4.3" fill="#F48FB1" opacity=".5"/><circle cx="648" cy="517" r="4.3" fill="#F48FB1" opacity=".5"/><circle cx="513.0499601383787" cy="607.7070264512747" r="20" fill="#E53935"/><path d="M513.0499601383787 587.7070264512747 l4 -10" stroke="#5D4037" stroke-width="3"/><ellipse cx="130" cy="560" rx="24" ry="10" fill="#33691E" opacity=".6" transform="rotate(25 130 560)"/><ellipse cx="210" cy="596" rx="24" ry="10" fill="#33691E" opacity=".6" transform="rotate(-25 210 596)"/><ellipse cx="130" cy="632" rx="24" ry="10" fill="#33691E" opacity=".6" transform="rotate(25 130 632)"/><ellipse cx="210" cy="668" rx="24" ry="10" fill="#33691E" opacity=".6" transform="rotate(-25 210 668)"/><ellipse cx="130" cy="704" rx="24" ry="10" fill="#33691E" opacity=".6" transform="rotate(25 130 704)"/><ellipse cx="590" cy="567" rx="24" ry="10" fill="#33691E" opacity=".6" transform="rotate(25 590 567)"/><ellipse cx="670" cy="603" rx="24" ry="10" fill="#33691E" opacity=".6" transform="rotate(-25 670 603)"/><ellipse cx="590" cy="639" rx="24" ry="10" fill="#33691E" opacity=".6" transform="rotate(25 590 639)"/><ellipse cx="670" cy="675" rx="24" ry="10" fill="#33691E" opacity=".6" transform="rotate(-25 670 675)"/><ellipse cx="590" cy="711" rx="24" ry="10" fill="#33691E" opacity=".6" transform="rotate(25 590 711)"/><g transform="translate(720 620)"><ellipse rx="26" ry="20" fill="#fff"/><ellipse cx="-8" cy="-30" rx="6" ry="18" fill="#fff"/><ellipse cx="6" cy="-30" rx="6" ry="18" fill="#fff"/><circle cx="-6" cy="-6" r="3" fill="#212121"/></g></svg>
